# xmcd CD database file
#
# Track frame offsets:
#	187
#	25790
#	45290
#	64977
#	81587
#	106625
#	133725
#	156480
#	187175
#
# Disc length: 2704 seconds
#
# Revision: 0
# Processed by: cddbd v1.5PL3 Copyright (c) Steve Scherf et al.
# Submitted via: CDex 1.51
#
DISCID=780a8e09
DTITLE=Asturias - Cryptogam Illusion
DYEAR=1993
DGENRE=Progressive Rock
TTITLE0=Distance
TTITLE1=Cryptogam Illusion
TTITLE2=Adolescencia
TTITLE3=Mistral Island
TTITLE4=Phoenix
TTITLE5=Glacier
TTITLE6=Cyber Transmission
TTITLE7=Danca Das Borboletas
TTITLE8=O Tempo Passa
EXTD=YEAR: 1993
EXTT0=
EXTT1=
EXTT2=
EXTT3=
EXTT4=
EXTT5=
EXTT6=
EXTT7=
EXTT8=
PLAYORDER=
